HIERARCHY
ROOT Hips
{
	OFFSET	0.00	0.00	0.00
	CHANNELS 6 Xposition Yposition Zposition Zrotation Xrotation Yrotation
	JOINT LeftUpLeg
	{
		OFFSET	 0.126116	-0.014019	-0.065224
		CHANNELS 3 Zrotation Xrotation Yrotation
		JOINT LeftLeg
		{
			OFFSET	 0.000000	 0.000000	 0.569914
			CHANNELS 3 Zrotation Xrotation Yrotation
			JOINT LeftFoot
			{
				OFFSET	 0.000000	 0.000000	 0.544423
				CHANNELS 3 Zrotation Xrotation Yrotation
				JOINT LeftToeBase
				{
					OFFSET	 0.000000	 0.000000	 0.207117
					CHANNELS 3 Zrotation Xrotation Yrotation
					End Site
					{
						OFFSET	 0.000000	 0.000000	 0.207117
					}
				}
			}
		}
	}
	JOINT RightUpLeg
	{
		OFFSET	-0.124023	-0.008373	-0.065224
		CHANNELS 3 Zrotation Xrotation Yrotation
		JOINT RightLeg
		{
			OFFSET	 0.000000	 0.000000	 0.570047
			CHANNELS 3 Zrotation Xrotation Yrotation
			JOINT RightFoot
			{
				OFFSET	 0.000000	 0.000000	 0.544354
				CHANNELS 3 Zrotation Xrotation Yrotation
				JOINT RightToeBase
				{
					OFFSET	 0.000000	 0.000000	 0.207540
					CHANNELS 3 Zrotation Xrotation Yrotation
					End Site
					{
						OFFSET	 0.000000	 0.000000	 0.207540
					}
				}
			}
		}
	}
	JOINT Spine
	{
		OFFSET	 0.000184	-0.007763	 0.117403
		CHANNELS 3 Zrotation Xrotation Yrotation
		JOINT Spine1
		{
			OFFSET	 0.000000	 0.000000	 0.137269
			CHANNELS 3 Zrotation Xrotation Yrotation
			JOINT Spine2
			{
				OFFSET	 0.000000	 0.000000	 0.156879
				CHANNELS 3 Zrotation Xrotation Yrotation
				JOINT LeftShoulder
				{
					OFFSET	 0.080501	-0.002496	 0.160144
					CHANNELS 3 Zrotation Xrotation Yrotation
					JOINT LeftArm
					{
						OFFSET	 0.000000	 0.000000	 0.164363
						CHANNELS 3 Zrotation Xrotation Yrotation
						JOINT LeftForeArm
						{
							OFFSET	 0.000000	 0.000000	 0.364576
							CHANNELS 3 Zrotation Xrotation Yrotation
							JOINT LeftHand
							{
								OFFSET	 0.000000	 0.000000	 0.360812
								CHANNELS 3 Zrotation Xrotation Yrotation
								JOINT LeftHandIndex1
								{
									OFFSET	 0.000000	 0.000000	 0.086006
									CHANNELS 3 Zrotation Xrotation Yrotation
									JOINT LeftHandIndex2
									{
										OFFSET	 0.000000	 0.000000	 0.047236
										CHANNELS 3 Zrotation Xrotation Yrotation
										JOINT LeftHandIndex3
										{
											OFFSET	-0.004284	-0.000551	 0.038166
											CHANNELS 3 Zrotation Xrotation Yrotation
											End Site
											{
												OFFSET	-0.004284	-0.000551	 0.038166
											}
										}
									}
								}
							}
						}
					}
				}
				JOINT Neck
				{
					OFFSET	 0.000000	 0.000000	 0.176489
					CHANNELS 3 Zrotation Xrotation Yrotation
					JOINT Head
					{
						OFFSET	 0.000000	-0.001747	 0.077940
						CHANNELS 3 Zrotation Xrotation Yrotation
						End Site
						{
							OFFSET	 0.000000	-0.001747	 0.077940
						}
					}
				}
				JOINT RightShoulder
				{
					OFFSET	-0.080363	 0.000306	 0.159706
					CHANNELS 3 Zrotation Xrotation Yrotation
					JOINT RightArm
					{
						OFFSET	 0.000000	 0.000000	 0.164196
						CHANNELS 3 Zrotation Xrotation Yrotation
						JOINT RightForeArm
						{
							OFFSET	 0.000000	 0.000000	 0.365611
							CHANNELS 3 Zrotation Xrotation Yrotation
							JOINT RightHand
							{
								OFFSET	 0.000000	 0.000000	 0.360648
								CHANNELS 3 Zrotation Xrotation Yrotation
								JOINT RightHandIndex1
								{
									OFFSET	 0.000000	 0.000000	 0.069977
									CHANNELS 3 Zrotation Xrotation Yrotation
									JOINT RightHandIndex2
									{
										OFFSET	 0.000000	 0.000000	 0.052305
										CHANNELS 3 Zrotation Xrotation Yrotation
										JOINT RightHandIndex3
										{
											OFFSET	 0.009002	-0.000782	 0.042196
											CHANNELS 3 Zrotation Xrotation Yrotation
											End Site
											{
												OFFSET	 0.009002	-0.000782	 0.042196
											}
										}
									}
								}
							}
						}
					}
				}
			}
		}
	}
}
MOTION
Frames:    5
Frame Time: 0.03333334
-0.000582	 0.016623	 1.315303	 0.002357	-0.000943	-0.184165	 11.869050	-1.898952	 177.027700	 1.485596	-10.918680	-0.635864	-6.544938	 61.764630	 0.788558	-2.385833	 28.452760	 0.000004	-11.924780	-2.810623	-176.775900	-1.457196	-12.175070	 0.698093	 6.447834	 62.309800	-0.803852	 2.384658	 28.388730	 0.000004	 39.042340	 2.770128	-0.104152	 2.123238	 3.582793	 0.840540	-6.390089	-4.382248	-1.384675	-91.776150	 78.527470	 180.000000	 46.223010	 32.866760	-54.031890	-26.506550	 4.103166	-11.634380	-23.085170	-31.522970	-0.673548	-2.635965	 4.993658	 6.788941	-5.165319	 0.784187	 3.516649	-5.225038	 0.466231	 0.424329	-0.000002	-3.783157	-0.089647	-6.215227	 4.695161	 0.255034	 89.782060	 78.203890	-180.000000	 1.171782	 12.646070	 107.695700	-15.990280	 3.787557	 11.769090	-8.367281	-30.457900	-11.381550	 6.112037	 4.509576	-0.364401	 4.968462	 1.518543	-9.347576	 5.168945	 0.703820	 2.021906
-0.000556	 0.016546	 1.317010	 0.002065	-0.000651	-0.176923	 12.244950	-1.931008	 176.999300	 1.485428	-10.933650	-0.636757	-6.516575	 61.475970	 0.772357	-2.385833	 28.452760	 0.000004	-12.302470	-2.828076	-176.761700	-1.457413	-12.157570	 0.697059	 6.410748	 62.004150	-0.779266	 2.384658	 28.388730	 0.000004	 39.730230	 2.770626	-0.096998	 2.042815	 3.575208	 0.809459	-6.146626	-4.386636	-1.332327	-91.776140	 78.527450	 180.000000	 46.228160	 32.886300	-54.051540	-23.678550	 2.994077	-10.005450	-18.933540	-37.182260	 2.549090	-2.635965	 4.993658	 6.788941	-5.165319	 0.784187	 3.516649	-5.225038	 0.466231	 0.424329	-0.000002	-3.783157	-0.089647	-5.977468	 4.731176	 0.247143	 89.782130	 78.203870	 180.000000	 1.117074	 12.782910	 107.620000	-18.929410	 2.670372	 10.120230	-13.833920	-35.329510	-15.298040	 6.112037	 4.509576	-0.364401	 4.968462	 1.518543	-9.347576	 5.168945	 0.703820	 2.021906
-0.000512	 0.016783	 1.317028	 0.002329	 0.000432	-0.167694	 12.244300	-1.941648	 176.991700	 1.485332	-10.942300	-0.637275	-6.515455	 61.468660	 0.771380	-2.385833	 28.452760	 0.000004	-12.304140	-2.830883	-176.772400	-1.457695	-12.135070	 0.695729	 6.398844	 61.970100	-0.766860	 2.384658	 28.388730	 0.000004	 39.191150	 2.769136	-0.088964	 1.946994	 3.570977	 0.773617	-5.857792	-4.397198	-1.271155	-91.776250	 78.527490	-179.999900	 46.291690	 32.968990	-54.187330	-21.064540	 2.135962	-8.454881	-15.180010	-40.445570	 5.624351	-2.635965	 4.993658	 6.788941	-5.165319	 0.784187	 3.516649	-5.225038	 0.466231	 0.424329	-0.000002	-3.783157	-0.089647	-5.695222	 4.769534	 0.237364	 89.782110	 78.203900	 180.000000	 1.150943	 12.958500	 107.598500	-21.646520	 1.806650	 8.554501	-18.319430	-37.902850	-18.756910	 6.112037	 4.509576	-0.364401	 4.968462	 1.518543	-9.347576	 5.168945	 0.703820	 2.021906
-0.000464	 0.017087	 1.317190	 0.002858	 0.002185	-0.153679	 12.229320	-1.955236	 176.980600	 1.485206	-10.953730	-0.637956	-6.530633	 61.460050	 0.773235	-2.385833	 28.452760	 0.000004	-12.319990	-2.831330	-176.787000	-1.458120	-12.100230	 0.693672	 6.367670	 61.925200	-0.747937	 2.384658	 28.388730	 0.000004	 37.133260	 2.765793	-0.076193	 1.798646	 3.568235	 0.718200	-5.410936	-4.416998	-1.176733	-91.776250	 78.527430	-180.000000	 46.398830	 33.100540	-54.409330	-17.677870	 1.258450	-6.395393	-10.886070	-42.151160	 9.011303	-2.635965	 4.993658	 6.788941	-5.165319	 0.784187	 3.516649	-5.225038	 0.466231	 0.424329	-0.000002	-3.783157	-0.089647	-5.258631	 4.823245	 0.221611	 89.782040	 78.203870	-180.000000	 0.228702	 12.938240	 107.392300	-25.164800	 0.923573	 6.477979	-22.959900	-38.810960	-22.148170	 6.112037	 4.509576	-0.364401	 4.968462	 1.518543	-9.347576	 5.168945	 0.703820	 2.021906
-0.000453	 0.017415	 1.317716	 0.003345	 0.003865	-0.138582	 12.228380	-1.971102	 176.967700	 1.485030	-10.968690	-0.638849	-6.529811	 61.454900	 0.772925	-2.385833	 28.452760	 0.000004	-12.322410	-2.827695	-176.802900	-1.458584	-12.063000	 0.691473	 6.353599	 61.881560	-0.733040	 2.384658	 28.388730	 0.000004	 33.984690	 2.761798	-0.061932	 1.635962	 3.567763	 0.656945	-4.920751	-4.439897	-1.072882	-91.776250	 78.527470	-180.000000	 46.514190	 33.241410	-54.644990	-14.448880	 0.666697	-4.396863	-7.804915	-41.511790	 11.003320	-2.635965	 4.993658	 6.788941	-5.165319	 0.784187	 3.516649	-5.225038	 0.466231	 0.424329	-0.000002	-3.783157	-0.089647	-4.780113	 4.876100	 0.203629	 89.782100	 78.203890	 180.000000	-2.265311	 12.540700	 106.990800	-28.511690	 0.325379	 4.460728	-26.065800	-37.518340	-23.654560	 6.112037	 4.509576	-0.364401	 4.968462	 1.518543	-9.347576	 5.168945	 0.703820	 2.021906
